<svg xmlns="http://www.w3.org/2000/svg" width="15.038" height="15.038" viewBox="0 0 15.038 15.038">
  <path id="Icon_awesome-download" data-name="Icon awesome-download" d="M6.344,0h2.35a.7.7,0,0,1,.7.7V5.639h2.576a.586.586,0,0,1,.414,1l-4.467,4.47a.569.569,0,0,1-.8,0L2.646,6.641a.586.586,0,0,1,.414-1H5.639V.7A.7.7,0,0,1,6.344,0Zm8.694,11.043v3.29a.7.7,0,0,1-.7.7H.7a.7.7,0,0,1-.7-.7v-3.29a.7.7,0,0,1,.7-.7H5.014l1.439,1.439a1.505,1.505,0,0,0,2.132,0l1.439-1.439h4.309A.7.7,0,0,1,15.038,11.043ZM11.4,13.628a.587.587,0,1,0-.587.587A.589.589,0,0,0,11.4,13.628Zm1.88,0a.587.587,0,1,0-.587.587A.589.589,0,0,0,13.276,13.628Z" fill="#a7a7a7"/>
</svg>
