<svg xmlns="http://www.w3.org/2000/svg" width="21.379" height="19" viewBox="0 0 21.379 19">
  <path id="Icon_awesome-edit" data-name="Icon awesome-edit" d="M14.943,3.091l3.348,3.348s.141.371,0,.512l-8.106,8.106L6.74,15.44a.722.722,0,0,1-.8-.8L6.325,11.2l8.106-8.106A.363.363,0,0,1,14.943,3.091Zm6.013-.85L19.145.43A1.452,1.452,0,0,0,17.1.43L15.782,1.744a.363.363,0,0,0,0,.512L19.13,5.6a.363.363,0,0,0,.512,0L20.956,4.29a1.452,1.452,0,0,0,0-2.049Zm-6.7,10.612v3.779H2.375V4.754H10.9a.456.456,0,0,0,.315-.13L12.705,3.14a.445.445,0,0,0-.315-.761H1.782A1.782,1.782,0,0,0,0,4.16V17.226a1.782,1.782,0,0,0,1.782,1.782H14.847a1.782,1.782,0,0,0,1.782-1.782V11.369a.446.446,0,0,0-.761-.315l-1.485,1.485A.456.456,0,0,0,14.253,12.853Z" transform="translate(0 -0.007)" fill="#a7a7a7"/>
</svg>
