<svg id="Group_81290" data-name="Group 81290" xmlns="http://www.w3.org/2000/svg" width="22.663" height="22.667" viewBox="0 0 22.663 22.667">
  <g id="Group_56" data-name="Group 56">
    <g id="Group_55" data-name="Group 55">
      <path id="Path_177" data-name="Path 177" d="M-400.011,768.649a6.251,6.251,0,0,0,2.619.763c-.066.076-.1.125-.147.168-1,1-1.987,2-2.988,2.987a4.048,4.048,0,0,1-5.65.036q-.909-.876-1.786-1.786a4.042,4.042,0,0,1,.038-5.666q3.287-3.3,6.591-6.593a4.041,4.041,0,0,1,5.68-.017q.431.422.853.854a1.186,1.186,0,0,1,.017,1.7,1.185,1.185,0,0,1-1.7-.021c-.266-.261-.526-.527-.791-.79a1.658,1.658,0,0,0-2.4-.014q-3.269,3.259-6.528,6.53a1.656,1.656,0,0,0,0,2.4q.81.818,1.627,1.629a1.658,1.658,0,0,0,2.416,0q1-.991,1.992-1.991C-400.111,768.78-400.063,768.713-400.011,768.649Z" transform="translate(409.102 -751.067)" fill="#ffffff"/>
      <path id="Path_178" data-name="Path 178" d="M-225.173,621.452a6.182,6.182,0,0,0-2.6-.755c.078-.085.125-.14.176-.191q1.454-1.455,2.908-2.909a4.048,4.048,0,0,1,5.778-.017q.843.832,1.675,1.676a4.048,4.048,0,0,1-.013,5.715q-3.274,3.286-6.559,6.561a4.046,4.046,0,0,1-5.729.012c-.281-.278-.561-.556-.837-.838a1.18,1.18,0,0,1-.013-1.685,1.184,1.184,0,0,1,1.7.008c.272.266.536.539.807.8a1.656,1.656,0,0,0,2.386.01q3.279-3.266,6.544-6.544a1.657,1.657,0,0,0,0-2.386q-.823-.836-1.66-1.659a1.655,1.655,0,0,0-2.368,0C-223.712,619.979-224.434,620.711-225.173,621.452Z" transform="translate(238.726 -616.375)" fill="#ffffff"/>
    </g>
  </g>
</svg>
