<svg xmlns="http://www.w3.org/2000/svg" width="16.643" height="17.385" viewBox="0 0 16.643 17.385">
  <path id="Icon_awesome-cog" data-name="Icon awesome-cog" d="M17.741,11.351l-1.493-.862a6.751,6.751,0,0,0,0-2.461l1.493-.862a.424.424,0,0,0,.193-.491,8.73,8.73,0,0,0-1.917-3.316.422.422,0,0,0-.519-.081L14,4.141a6.615,6.615,0,0,0-2.131-1.23V1.19a.42.42,0,0,0-.329-.41,8.811,8.811,0,0,0-3.827,0,.42.42,0,0,0-.329.41V2.914a6.824,6.824,0,0,0-2.131,1.23l-1.49-.862a.416.416,0,0,0-.519.081A8.677,8.677,0,0,0,1.33,6.679a.419.419,0,0,0,.193.491l1.493.862a6.751,6.751,0,0,0,0,2.461l-1.493.862a.424.424,0,0,0-.193.491,8.73,8.73,0,0,0,1.917,3.316.422.422,0,0,0,.519.081l1.493-.862a6.615,6.615,0,0,0,2.131,1.23v1.724a.42.42,0,0,0,.329.41,8.811,8.811,0,0,0,3.827,0,.42.42,0,0,0,.329-.41V15.61a6.824,6.824,0,0,0,2.131-1.23l1.493.862a.416.416,0,0,0,.519-.081,8.677,8.677,0,0,0,1.917-3.316.433.433,0,0,0-.2-.494Zm-8.111.712a2.8,2.8,0,1,1,2.8-2.8A2.808,2.808,0,0,1,9.63,12.062Z" transform="translate(-1.311 -0.569)" fill="#a7a7a7"/>
</svg>
