<svg xmlns="http://www.w3.org/2000/svg" width="21.704" height="18.991" viewBox="0 0 21.704 18.991">
  <path id="Icon_metro-strikethrough" data-name="Icon metro-strikethrough" d="M24.275,13.352v1.357H19.3a4.662,4.662,0,0,1,.9,2.713,5,5,0,0,1-2.132,3.963,7.773,7.773,0,0,1-4.651,1.463,7.773,7.773,0,0,1-4.651-1.463A5,5,0,0,1,6.64,17.421H9.353c0,1.471,1.864,2.713,4.07,2.713s4.07-1.242,4.07-2.713-1.864-2.713-4.07-2.713H2.571V13.352H8.919q-.074-.052-.147-.107A5,5,0,0,1,6.64,9.282,5,5,0,0,1,8.772,5.319a7.773,7.773,0,0,1,4.651-1.463,7.773,7.773,0,0,1,4.651,1.463,5,5,0,0,1,2.132,3.963H17.492c0-1.471-1.864-2.713-4.07-2.713s-4.07,1.242-4.07,2.713S11.217,12,13.423,12a7.824,7.824,0,0,1,4.5,1.357Z" transform="translate(-2.571 -3.856)" fill="#dcdcdc"/>
</svg>
