<svg id="Group_81308" data-name="Group 81308" xmlns="http://www.w3.org/2000/svg" width="31.541" height="33.342" viewBox="0 0 31.541 33.342">
  <g id="Group_1188" data-name="Group 1188">
    <path id="Path_1064" data-name="Path 1064" d="M1288.608,3691.531h-5.622a1.3,1.3,0,0,0-1.3,1.3v2.725l-6.769-5.063a1.3,1.3,0,0,0-1.559,0l-14.473,10.826a1.3,1.3,0,0,0-.52,1.039v19.919a1.3,1.3,0,0,0,1.3,1.3h20.94a1.133,1.133,0,0,0,.146-.01,1.008,1.008,0,0,0,.2-.039,1.28,1.28,0,0,0,.575-.331l8-8a1.3,1.3,0,0,0,.38-.919V3692.83A1.3,1.3,0,0,0,1288.608,3691.531Zm-6.7,27.611v-3.566h3.566Zm5.4-6.165h-6.7a1.3,1.3,0,0,0-1.3,1.3v6.7h-18.341v-17.968l13.174-9.854,8.068,6.038a1.3,1.3,0,0,0,2.079-1.042v-4.021h3.024Z" transform="translate(-1258.366 -3690.233)"/>
  </g>
  <g id="Group_1189" data-name="Group 1189" transform="translate(5.002 18.733)">
    <path id="Path_1065" data-name="Path 1065" d="M1346.439,3949.524H1328.9a1.3,1.3,0,1,0,0,2.6h17.539a1.3,1.3,0,0,0,0-2.6Z" transform="translate(-1327.601 -3949.524)"/>
  </g>
  <g id="Group_1190" data-name="Group 1190" transform="translate(5.002 24.368)">
    <path id="Path_1066" data-name="Path 1066" d="M1340.268,4027.525H1328.9a1.3,1.3,0,1,0,0,2.6h11.368a1.3,1.3,0,0,0,0-2.6Z" transform="translate(-1327.601 -4027.525)"/>
  </g>
  <g id="Group_1191" data-name="Group 1191" transform="translate(5.002 13.097)">
    <path id="Path_1067" data-name="Path 1067" d="M1346.439,3871.523H1328.9a1.3,1.3,0,0,0,0,2.6h17.539a1.3,1.3,0,0,0,0-2.6Z" transform="translate(-1327.601 -3871.523)"/>
  </g>
</svg>
