<svg xmlns="http://www.w3.org/2000/svg" xmlns:xlink="http://www.w3.org/1999/xlink" width="336.276" height="71.392" viewBox="0 0 336.276 71.392">
  <defs>
    <linearGradient id="linear-gradient" y1="0.5" x2="1" y2="0.5" gradientUnits="objectBoundingBox">
      <stop offset="0.003"/>
      <stop offset="0.368" stop-color="#fff"/>
      <stop offset="1"/>
    </linearGradient>
    <linearGradient id="linear-gradient-2" y1="0.5" x2="1" y2="0.5" gradientUnits="objectBoundingBox">
      <stop offset="0" stop-color="#339a4c"/>
      <stop offset="0.34" stop-color="#6eb94d"/>
      <stop offset="1" stop-color="#a5ca50"/>
    </linearGradient>
    <linearGradient id="linear-gradient-3" x1="1.238" y1="0.868" x2="0.222" y2="-0.011" gradientUnits="objectBoundingBox">
      <stop offset="0" stop-color="#036738"/>
      <stop offset="0.38" stop-color="#339a4c"/>
      <stop offset="1" stop-color="#6eb94d"/>
    </linearGradient>
  </defs>
  <g id="veribuild" transform="translate(-11.6 -14)">
    <g id="Group_1" data-name="Group 1" transform="translate(102.843 26.578)">
      <path id="Path_1" data-name="Path 1" d="M236.706,51.7,219.067,91.5h-4.127L197.3,51.7h4.57L217.1,86.291,232.431,51.7Z" transform="translate(-197.3 -45.755)"/>
      <path id="Path_2" data-name="Path 2" d="M301.138,87.811H276.129c.442,6.24,5.208,10.417,11.792,10.417A11.785,11.785,0,0,0,297.06,94.3l2.26,2.6c-2.653,3.194-6.83,4.913-11.547,4.913-9.336,0-15.674-6.387-15.674-15.232S278.291,71.4,286.693,71.4s14.495,6.191,14.495,15.183C301.188,86.877,301.138,87.369,301.138,87.811ZM276.08,84.765h21.226c-.491-5.847-4.766-9.974-10.613-9.974C280.9,74.839,276.62,78.918,276.08,84.765Z" transform="translate(-235.347 -55.775)"/>
      <path id="Path_3" data-name="Path 3" d="M358.484,71.3v3.931c-.344,0-.688-.049-.983-.049-6.24,0-10.073,3.98-10.073,11.055v15.232H343.4V71.546h3.882v5.847C349.149,73.413,352.981,71.3,358.484,71.3Z" transform="translate(-271.615 -55.724)"/>
      <path id="Path_4" data-name="Path 4" d="M382.4,49.65a2.938,2.938,0,0,1,2.948-2.85,2.835,2.835,0,0,1,2.948,2.8,2.866,2.866,0,0,1-2.948,2.948A2.947,2.947,0,0,1,382.4,49.65Zm.934,9.434h4.029V89.007h-4.029Z" transform="translate(-291.452 -43.262)"/>
      <path id="Path_5" data-name="Path 5" d="M445.334,80.491c0,6.879-5.7,10.908-16.362,10.908H407.5V51.6h20.342c10.466,0,15.576,4.275,15.576,10.417a9.351,9.351,0,0,1-5.356,8.648C442.533,72.286,445.334,75.676,445.334,80.491ZM418.6,59.756v7.665h7.714c3.734,0,5.7-1.327,5.7-3.882,0-2.506-1.916-3.832-5.7-3.832H418.6Zm15.33,19.506c0-2.752-2.064-4.029-5.9-4.029H418.6v8.058h9.434C431.92,83.292,433.934,82.014,433.934,79.263Z" transform="translate(-304.219 -45.704)"/>
      <path id="Path_6" data-name="Path 6" d="M523.078,69.9v30.807H512.809V97.464a12.167,12.167,0,0,1-9.139,3.832c-7.567,0-13.07-4.324-13.07-14.1V69.9h10.81V85.377c0,4.766,1.867,6.633,5.11,6.633,3.194,0,5.8-2.113,5.8-7.272V69.9Z" transform="translate(-346.489 -55.012)"/>
      <path id="Path_7" data-name="Path 7" d="M563.8,45.349c0-3.243,2.6-5.749,6.584-5.749s6.584,2.309,6.584,5.552c0,3.39-2.6,5.9-6.584,5.9S563.8,48.592,563.8,45.349Zm1.179,9.139h10.81V85.3h-10.81Z" transform="translate(-383.722 -39.6)"/>
      <path id="Path_8" data-name="Path 8" d="M597.8,46.8h10.81V89.006H597.8Z" transform="translate(-401.017 -43.262)"/>
      <path id="Path_9" data-name="Path 9" d="M660.292,46.8V89.006H650.023V85.96c-2.064,2.457-5.061,3.587-9.041,3.587-8.4,0-15.183-6.142-15.183-15.969,0-9.778,6.781-15.87,15.183-15.87,3.587,0,6.486,1.032,8.549,3.194V46.8ZM649.679,73.529c0-4.668-2.8-7.272-6.437-7.272-3.685,0-6.486,2.6-6.486,7.272,0,4.717,2.8,7.37,6.486,7.37C646.879,80.9,649.679,78.246,649.679,73.529Z" transform="translate(-415.259 -43.262)"/>
    </g>
    <path id="Path_10" data-name="Path 10" d="M139.1,86.7" transform="translate(-64.854 -36.979)" fill="#4b4c4c"/>
    <g id="Group_3" data-name="Group 3" transform="translate(11.6 14)">
      <path id="Path_11" data-name="Path 11" d="M53.2,52.8V72.306l8.6-2.555V52.8Zm5.11,16.951H56.738V67.442H58.31Zm2.6-4.176H54.134v-.786h6.781Zm0-1.916H54.134v-.786h6.781Zm0-1.916H54.134v-.786h6.781Zm0-1.916H54.134V59.04h6.781Zm0-1.916H54.134v-.786h6.781Zm0-1.965H54.134v-.786h6.781Z" transform="translate(-32.76 -33.736)" fill="#0d3455"/>
      <path id="Path_12" data-name="Path 12" d="M89.2,42.445v.737h13.659v-.737h-2.113V30.456H99.223v-5.11h0L96.177,22.3l-3.046,3.046v5.11H91.608V42.445H89.2ZM97.749,27.8H96.374V26.427h1.376Zm0,10.908h2.015v2.015H97.749Zm0-2.653h2.015v2.015H97.749Zm0-2.653h2.015v2.015H97.749Zm0-3.832H96.374V28.2h1.376Zm-2.555,9.139h2.015v2.015H95.194Zm0-2.653h2.015v2.015H95.194Zm0-2.653h2.015v2.015H95.194Zm-.54-5.208H96.03v1.376H94.654Zm0-1.769H96.03V27.8H94.654ZM92.639,38.711h2.015v2.015H92.639Zm0-2.653h2.015v2.015H92.639Zm0-2.653h2.015v2.015H92.639Z" transform="translate(-51.072 -18.222)" fill="#0d3455"/>
      <g id="Group_2" data-name="Group 2" transform="translate(29.481)">
        <path id="Path_13" data-name="Path 13" d="M71.6,16.26V45.544h6.289V19.994h.049V14Zm5.307,12.628H72.534v-.639h4.373Zm0-1.572H72.534v-.639h4.373Zm0-1.523H72.534v-.639h4.373Zm0-1.572H72.534v-.639h4.373Zm0-1.523H72.534v-.639h4.373Zm0-1.572H72.534v-.639h4.373Zm0-1.523H72.534v-.688h4.373Zm0-1.572H72.534V17.39h4.373Z" transform="translate(-71.6 -14)" fill="#0d3455"/>
        <path id="Path_14" data-name="Path 14" d="M85.2,26.3V51.8h3.931V28.511Z" transform="translate(-78.518 -20.256)" fill="#0d3455"/>
      </g>
      <path id="Path_15" data-name="Path 15" d="M37.887,65.6,11.6,28.159,37.887,85.647,82.992,14.5Z" transform="translate(-11.6 -14.254)" opacity="0.2" fill="url(#linear-gradient)"/>
      <path id="Path_16" data-name="Path 16" d="M37.887,46.732,11.6,28.159,37.887,85.647,82.992,14.5Z" transform="translate(-11.6 -14.254)" fill="url(#linear-gradient-2)"/>
      <path id="Path_17" data-name="Path 17" d="M37.887,60.873,11.6,42.3,37.887,99.787Z" transform="translate(-11.6 -28.395)" fill="url(#linear-gradient-3)"/>
      <path id="Path_18" data-name="Path 18" d="M118.875,60.824a18.335,18.335,0,0,0-10.318-5.847c1.179-.54,2.015-.934,2.506-1.13.442-.246,1.278-.835,2.506-1.72,3.538-2.653,5.257-6.682,5.257-12.136a18.081,18.081,0,0,0-4.668-12.136,15.15,15.15,0,0,0-3.145-2.555l-8.7,13.709a9.48,9.48,0,0,1,.491,3.292c0,3.1-1.032,5.11-3.145,6.044a14.554,14.554,0,0,1-3.98,1.032L87.675,61.954H91.8c5.159,0,8.942.491,11.3,1.523s3.538,3.145,3.538,6.387-1.13,5.356-3.341,6.486q-3.317,1.621-10.023,1.621H82.712V69.865L69.2,91.14H97.649c9.581,0,16.263-2.162,20.1-6.486a18.632,18.632,0,0,0,4.963-12.824A16.237,16.237,0,0,0,118.875,60.824Z" transform="translate(-40.899 -19.748)" fill="#0d3455"/>
    </g>
  </g>
</svg>
