<svg xmlns="http://www.w3.org/2000/svg" xmlns:xlink="http://www.w3.org/1999/xlink" width="1751" height="375" viewBox="0 0 1751 375">
  <defs>
    <clipPath id="clip-path">
      <rect id="Rectangle_1439" data-name="Rectangle 1439" width="65.09" height="65.165" fill="none"/>
    </clipPath>
  </defs>
  <g id="Group_85621" data-name="Group 85621" transform="translate(14250 -5179.965)">
    <g id="Rectangle_25054" data-name="Rectangle 25054" transform="translate(-14250 5179.965)" fill="#f2f2f2" stroke="#dcdcdc" stroke-width="1" stroke-dasharray="4 4">
      <rect width="1751" height="375" rx="3" stroke="none"/>
      <rect x="0.5" y="0.5" width="1750" height="374" rx="2.5" fill="none"/>
    </g>
    <g id="Group_3251" data-name="Group 3251" transform="translate(-13569.754 5258.593)" opacity="0.168">
      <path id="Icon_awesome-file-pdf" data-name="Icon awesome-file-pdf" d="M23.079,32.493c-.634-2.03-.622-5.951-.254-5.951C23.891,26.543,23.79,31.225,23.079,32.493Zm-.216,5.989a58.545,58.545,0,0,1-3.6,7.955,46.72,46.72,0,0,1,7.981-2.779A16.435,16.435,0,0,1,22.863,38.482ZM10.924,54.317c0,.1,1.675-.685,4.428-5.1C14.5,50.015,11.66,52.325,10.924,54.317ZM31.466,20.3H48.721V61.917a3.038,3.038,0,0,1-3.045,3.045H3.045A3.038,3.038,0,0,1,0,61.917V3.045A3.038,3.038,0,0,1,3.045,0H28.421V17.255A3.054,3.054,0,0,0,31.466,20.3ZM30.451,42.1a12.734,12.734,0,0,1-5.418-6.826c.571-2.347,1.472-5.913.787-8.146-.6-3.73-5.38-3.362-6.065-.863-.634,2.322-.051,5.6,1.028,9.77A119.142,119.142,0,0,1,15.606,46.92c-.013,0-.013.013-.025.013C12.142,48.7,6.242,52.578,8.666,55.56a3.943,3.943,0,0,0,2.728,1.269c2.271,0,4.53-2.284,7.752-7.841a72.322,72.322,0,0,1,10.023-2.944,19.228,19.228,0,0,0,8.12,2.474c3.7,0,3.959-4.06,2.5-5.507-1.764-1.726-6.889-1.231-9.338-.914ZM47.833,13.322,35.4.888A3.043,3.043,0,0,0,33.242,0h-.761V16.24h16.24v-.774A3.035,3.035,0,0,0,47.833,13.322Zm-9.4,32.392c.52-.343-.317-1.51-5.43-1.142C37.708,46.577,38.431,45.714,38.431,45.714Z"/>
      <g id="Group_3250" data-name="Group 3250" transform="translate(248.138)">
        <g id="Group_3249" data-name="Group 3249" clip-path="url(#clip-path)">
          <path id="Path_13911" data-name="Path 13911" d="M32.526,65.164H2.093C.418,65.163,0,64.751,0,63.09q0-30.4,0-60.8c0-.246-.01-.492.007-.737A1.479,1.479,0,0,1,1.665,0q9.248,0,18.5,0H63.193c1.406,0,1.9.481,1.9,1.9q0,30.694,0,61.388c0,1.411-.476,1.874-1.909,1.874H32.526ZM3.662,53.473H61.573V12.063H3.662Zm0-45.714H8.519c0-1.119.015-2.171-.017-3.222,0-.149-.23-.415-.357-.418C6.66,4.09,5.174,4.1,3.657,4.1Zm36.983.033c0-1.14.015-2.189-.016-3.238,0-.154-.22-.43-.342-.432C38.8,4.092,37.312,4.1,35.8,4.1v3.69Zm10.582,0V4.095c-1.491,0-2.911-.01-4.331.014-.163,0-.458.2-.462.309-.035,1.117-.021,2.235-.021,3.37Zm10.256,0a.883.883,0,0,0,.089-.238c.01-.735.02-1.471.017-2.206-.006-1.434.14-1.235-1.262-1.244-1.191-.008-2.383,0-3.576,0v3.69Zm-42.725,0c0-1.13.017-2.184-.019-3.237a.61.61,0,0,0-.41-.431c-1.443-.032-2.887-.02-4.388-.02V7.785Zm6.082-.012H29.7c0-1.124.018-2.2-.021-3.266-.005-.143-.292-.39-.453-.394-1.32-.031-2.641-.028-3.962,0-.147,0-.41.222-.414.348-.033,1.093-.019,2.187-.019,3.312M3.66,61.411c1.528,0,3.036.01,4.544-.021.109,0,.3-.3.3-.471.03-.905.033-1.812,0-2.717-.007-.172-.23-.478-.36-.481C6.661,57.687,5.178,57.7,3.66,57.7Zm10.233-3.675c0,1.133-.017,2.23.023,3.325,0,.128.319.346.494.35q1.911.045,3.823,0c.175,0,.49-.222.494-.35.04-1.093.023-2.188.023-3.324Zm10.938-.041c0,1.165-.017,2.237.02,3.309a.612.612,0,0,0,.438.4c1.3.033,2.6.039,3.9,0a.728.728,0,0,0,.5-.506,25.3,25.3,0,0,0,0-2.72.665.665,0,0,0-.457-.46c-1.421-.037-2.843-.021-4.4-.021M35.8,61.429c1.046,0,2.046,0,3.047,0,1.8,0,1.8,0,1.8-1.76,0-1.972,0-1.972-2.011-1.976q-1.417,0-2.835,0Zm15.494-3.735c-1.55,0-2.969-.015-4.387.02a.666.666,0,0,0-.482.433c-.046.928-.047,1.861,0,2.789a.671.671,0,0,0,.459.467c1.321.039,2.644.036,3.965,0A.6.6,0,0,0,51.273,61c.037-1.07.02-2.141.02-3.3m5.43,3.73c1.531,0,2.971.016,4.409-.023.155,0,.424-.314.432-.493.044-.9.035-1.811.006-2.716-.005-.166-.19-.464-.3-.467-1.506-.031-3.012-.021-4.55-.021Z" transform="translate(0 0)"/>
          <path id="Path_13912" data-name="Path 13912" d="M177.292,138.284q0-6.077,0-12.154c0-.319,0-.639.028-.957a1.322,1.322,0,0,1,2.114-1.09,18.8,18.8,0,0,1,1.592,1.187q7.141,5.571,14.277,11.147c1.622,1.267,1.606,2.473-.022,3.748q-7.361,5.767-14.715,11.544a12.009,12.009,0,0,1-1.076.772,1.416,1.416,0,0,1-2.216-1.233c.062-4.32.025-8.642.025-12.964Z" transform="translate(-151.101 -105.545)"/>
        </g>
      </g>
      <path id="Icon_awesome-images" data-name="Icon awesome-images" d="M60.9,50.971V53a6.09,6.09,0,0,1-6.09,6.09H6.09A6.09,6.09,0,0,1,0,53V20.52a6.09,6.09,0,0,1,6.09-6.09H8.12V40.821a10.162,10.162,0,0,0,10.15,10.15Zm12.18-10.15V8.34a6.09,6.09,0,0,0-6.09-6.09H18.27a6.09,6.09,0,0,0-6.09,6.09V40.821a6.09,6.09,0,0,0,6.09,6.09H66.992A6.09,6.09,0,0,0,73.082,40.821ZM32.481,14.43a6.09,6.09,0,1,1-6.09-6.09A6.09,6.09,0,0,1,32.481,14.43ZM20.3,32.7l7.044-7.044a1.523,1.523,0,0,1,2.153,0l5.013,5.014L51.7,13.477a1.523,1.523,0,0,1,2.153,0l11.1,11.1v14.21H20.3Z" transform="translate(326.542 1.912)"/>
      <path id="Icon_awesome-file-word" data-name="Icon awesome-file-word" d="M28.421,17.255V0H3.045A3.038,3.038,0,0,0,0,3.045V61.917a3.038,3.038,0,0,0,3.045,3.045H45.676a3.038,3.038,0,0,0,3.045-3.045V20.3H31.466A3.054,3.054,0,0,1,28.421,17.255Zm7.245,15.225H38.7a1.523,1.523,0,0,1,1.484,1.865L35.361,55.661a1.509,1.509,0,0,1-1.484,1.18H29.055a1.52,1.52,0,0,1-1.472-1.155c-3.273-13.132-2.639-10.3-3.248-14.02h-.063c-.14,1.814-.3,2.208-3.248,14.02a1.52,1.52,0,0,1-1.472,1.155H14.845a1.52,1.52,0,0,1-1.484-1.193l-4.8-21.316a1.517,1.517,0,0,1,1.484-1.852h3.109a1.522,1.522,0,0,1,1.5,1.231c1.979,9.9,2.55,13.893,2.664,15.5.2-1.294.926-4.149,3.73-15.568a1.51,1.51,0,0,1,1.484-1.155h3.692a1.522,1.522,0,0,1,1.484,1.167c3.045,12.739,3.654,15.733,3.756,16.418-.025-1.421-.33-2.258,2.741-16.393a1.471,1.471,0,0,1,1.459-1.205ZM48.721,15.466v.774H32.481V0h.774a3.043,3.043,0,0,1,2.157.888L47.833,13.322A3.035,3.035,0,0,1,48.721,15.466Z" transform="translate(186.104)"/>
      <path id="Icon_awesome-file-excel" data-name="Icon awesome-file-excel" d="M28.421,17.255V0H3.045A3.038,3.038,0,0,0,0,3.045V61.917a3.038,3.038,0,0,0,3.045,3.045H45.676a3.038,3.038,0,0,0,3.045-3.045V20.3H31.466A3.054,3.054,0,0,1,28.421,17.255Zm7.625,13.513L28.421,42.631l7.625,11.863a1.525,1.525,0,0,1-1.281,2.347H30.337a1.528,1.528,0,0,1-1.345-.8c-2.487-4.593-4.631-8.717-4.631-8.717-.812,1.878-1.269,2.538-4.644,8.729a1.508,1.508,0,0,1-1.332.8H13.957a1.525,1.525,0,0,1-1.281-2.347l7.651-11.863L12.675,30.781a1.521,1.521,0,0,1,1.281-2.347h4.415a1.528,1.528,0,0,1,1.345.8c3.312,6.192,2.538,4.263,4.644,8.691,0,0,.774-1.484,4.644-8.691a1.528,1.528,0,0,1,1.345-.8h4.415A1.513,1.513,0,0,1,36.046,30.768Zm12.675-15.3v.774H32.481V0h.774a3.043,3.043,0,0,1,2.157.888L47.833,13.322A3.035,3.035,0,0,1,48.721,15.466Z" transform="translate(62.035 0.102)"/>
      <path id="Icon_awesome-file-powerpoint" data-name="Icon awesome-file-powerpoint" d="M24.576,34.409a3.254,3.254,0,0,1,2.576,1.028,4.663,4.663,0,0,1-.025,5.6,3.368,3.368,0,0,1-2.677,1.078H21.036v-7.7h3.54ZM47.833,13.322,35.4.888A3.043,3.043,0,0,0,33.242,0h-.761V16.24h16.24v-.774A3.035,3.035,0,0,0,47.833,13.322ZM28.421,17.255V0H3.045A3.038,3.038,0,0,0,0,3.045V61.917a3.038,3.038,0,0,0,3.045,3.045H45.676a3.038,3.038,0,0,0,3.045-3.045V20.3H31.466A3.054,3.054,0,0,1,28.421,17.255Zm6.725,20.96c0,11.457-11.267,9.846-14.1,9.846v7.257a1.527,1.527,0,0,1-1.523,1.523H15.619A1.527,1.527,0,0,1,14.1,55.319V29.969a1.527,1.527,0,0,1,1.523-1.523H25.9C31.542,28.446,35.145,32.608,35.145,38.216Z" transform="translate(124.069 0.102)"/>
    </g>
  </g>
</svg>
