<svg id="Group_85523" data-name="Group 85523" xmlns="http://www.w3.org/2000/svg" width="183.274" height="160.103" viewBox="0 0 183.274 160.103">
  <rect id="marc-mueller-zQLV9DJYo4I-unsplash" width="183.274" height="160.103" rx="5" transform="translate(0)" fill="#f5f5f5"/>
  <path id="Icon_awesome-photo-video" data-name="Icon awesome-photo-video" d="M90.149,0H23.724a4.745,4.745,0,0,0-4.745,4.745V18.979H42.7V9.489H71.171V56.936H90.149a4.745,4.745,0,0,0,4.745-4.745V4.745A4.745,4.745,0,0,0,90.149,0ZM34.4,15.272a1.334,1.334,0,0,1-1.334,1.334H28.616a1.334,1.334,0,0,1-1.334-1.334V10.824a1.334,1.334,0,0,1,1.334-1.334h4.448A1.334,1.334,0,0,1,34.4,10.824ZM86.591,46.113a1.334,1.334,0,0,1-1.334,1.334H80.808a1.334,1.334,0,0,1-1.334-1.334V41.664a1.334,1.334,0,0,1,1.334-1.334h4.448a1.334,1.334,0,0,1,1.334,1.334Zm0-15.42a1.334,1.334,0,0,1-1.334,1.334H80.808a1.334,1.334,0,0,1-1.334-1.334V26.244a1.334,1.334,0,0,1,1.334-1.334h4.448a1.334,1.334,0,0,1,1.334,1.334Zm0-15.42a1.334,1.334,0,0,1-1.334,1.334H80.808a1.334,1.334,0,0,1-1.334-1.334V10.824a1.334,1.334,0,0,1,1.334-1.334h4.448a1.334,1.334,0,0,1,1.334,1.334Zm-24.91,8.452H4.745A4.745,4.745,0,0,0,0,28.468v42.7a4.745,4.745,0,0,0,4.745,4.745H61.681a4.745,4.745,0,0,0,4.745-4.745v-42.7A4.745,4.745,0,0,0,61.681,23.724ZM14.234,33.213a4.745,4.745,0,1,1-4.745,4.745,4.745,4.745,0,0,1,4.745-4.745Zm42.7,33.213H9.489V61.681l9.489-9.489,4.745,4.745L42.7,37.958,56.936,52.192Z" transform="translate(44.184 42.094)" opacity="0.1"/>
</svg>
