<svg xmlns="http://www.w3.org/2000/svg" xmlns:xlink="http://www.w3.org/1999/xlink" width="189.225" height="170.378" viewBox="0 0 189.225 170.378">
  <defs>
    <clipPath id="clip-path">
      <rect id="Rectangle_25041" data-name="Rectangle 25041" width="41.784" height="52.193" fill="#d6d6d6"/>
    </clipPath>
  </defs>
  <g id="Group_85621" data-name="Group 85621" transform="translate(-1251 -992.796)">
    <g id="Group_85540" data-name="Group 85540" transform="translate(1251 992.796)">
      <rect id="marc-mueller-zQLV9DJYo4I-unsplash" width="189.225" height="170.378" rx="5" transform="translate(0)" fill="#f5f5f5"/>
    </g>
    <g id="Group_85552" data-name="Group 85552" transform="translate(1324.281 1051.889)">
      <g id="Group_85543" data-name="Group 85543" clip-path="url(#clip-path)">
        <path id="Path_43571" data-name="Path 43571" d="M0,26.1Q0,15.792,0,5.486A5.222,5.222,0,0,1,4.236.108,6.79,6.79,0,0,1,5.574.015Q15.542.006,25.51,0a1.368,1.368,0,0,1,1.064.451q7.382,7.407,14.789,14.79a1.309,1.309,0,0,1,.422,1.016q-.016,15.2-.01,30.4a5.226,5.226,0,0,1-4.232,5.439,6.739,6.739,0,0,1-1.338.095q-15.318.007-30.637,0A5.231,5.231,0,0,1,0,46.588Q0,36.343,0,26.1m36.17-7.85L23.529,5.6V18.248ZM16.867,31.532V41.765a42.618,42.618,0,0,0,4.532-.029c2.689-.291,4.177-1.857,4.577-4.537a4.707,4.707,0,0,0-3.832-5.68,16.606,16.606,0,0,0-5.277.014m-6.694,6.561a14.6,14.6,0,0,0,1.549-.012,6.118,6.118,0,0,0,1.421-.321,3.173,3.173,0,0,0,2.146-3.5,2.866,2.866,0,0,0-2.649-2.746c-1.382-.158-2.8-.027-4.194-.049-.52-.008-.627.219-.624.7.02,2.994.01,5.989.01,8.983v.609h2.341ZM27.619,41.76h2.342V37.611h3.67v-1.9H29.981V33.3H33.9V31.431H27.619Z" transform="translate(0 -0.001)" fill="#d6d6d6"/>
        <path id="Path_43572" data-name="Path 43572" d="M117.886,203.281c1.465-.165,2.892-.181,3.749,1.2a3.954,3.954,0,0,1-.043,4.288c-.824,1.383-2.236,1.446-3.707,1.338Z" transform="translate(-98.663 -170.068)" fill="#d6d6d6"/>
        <path id="Path_43573" data-name="Path 43573" d="M62.584,203.1a2.279,2.279,0,0,1,2.481.448,1.73,1.73,0,0,1,.037,1.84,2.288,2.288,0,0,1-2.518.662Z" transform="translate(-52.379 -169.842)" fill="#d6d6d6"/>
      </g>
    </g>
  </g>
</svg>
