<svg xmlns="http://www.w3.org/2000/svg" xmlns:xlink="http://www.w3.org/1999/xlink" width="181.974" height="47.336" viewBox="0 0 181.974 47.336">
  <defs>
    <clipPath id="clip-path">
      <rect id="Rectangle_22479" data-name="Rectangle 22479" width="37.853" height="47.336" fill="#ccc"/>
    </clipPath>
    <clipPath id="clip-path-2">
      <rect id="Rectangle_22480" data-name="Rectangle 22480" width="37.856" height="47.336" fill="#ccc"/>
    </clipPath>
    <clipPath id="clip-path-3">
      <rect id="Rectangle_22481" data-name="Rectangle 22481" width="41.739" height="47.336" fill="#ccc"/>
    </clipPath>
  </defs>
  <g id="Group_81248" data-name="Group 81248" transform="translate(-879 -505)">
    <g id="Group_81242" data-name="Group 81242" transform="translate(879 505)">
      <g id="Group_81241" data-name="Group 81241" clip-path="url(#clip-path)">
        <path id="Path_135" data-name="Path 135" d="M18.906,47.336q-7.028,0-14.056,0A4.716,4.716,0,0,1,.166,43.821a5.124,5.124,0,0,1-.159-1.286Q0,23.668,0,4.8A4.686,4.686,0,0,1,3.942.08a5.026,5.026,0,0,1,.91-.072Q14.112,0,23.372,0a.624.624,0,0,1,.484.2q6.9,6.905,13.8,13.8a.591.591,0,0,1,.195.458q-.007,14.015-.005,28.03A4.691,4.691,0,0,1,33.9,47.26a5.54,5.54,0,0,1-.993.072q-7,.007-14,0m2.4-30.789H32.966L21.308,4.889ZM15.245,37.876a13.271,13.271,0,0,0,5.155-.24,4.158,4.158,0,0,0,2.839-2.621,5.937,5.937,0,0,0,.337-2.369,4.1,4.1,0,0,0-3.4-4.045,12.97,12.97,0,0,0-3.75-.133c-.393.028-.784.083-1.18.126ZM9.212,34.538a6.326,6.326,0,0,0,2.324-.163,2.964,2.964,0,0,0,2.338-3.141,2.776,2.776,0,0,0-2.471-2.7,11.068,11.068,0,0,0-2.953-.086c-.447.026-.891.093-1.326.14V37.9H9.212Zm21.523-4.315V28.5H25.006v9.393h2.137V34.105H30.5V32.366H27.15V30.223ZM17.4,36.311c.447,0,.873.028,1.294-.005a2.656,2.656,0,0,0,2.472-2.076,4.533,4.533,0,0,0,.073-2.006A2.435,2.435,0,0,0,19.9,30.368a4.139,4.139,0,0,0-2.5-.251Zm-6.315-3.659a1.378,1.378,0,0,0,.657-1.446A1.162,1.162,0,0,0,10.715,30.1a7.43,7.43,0,0,0-1.344-.033.214.214,0,0,0-.149.147c-.009.884-.007,1.767-.007,2.674a2.808,2.808,0,0,0,1.869-.235" transform="translate(0 0)" fill="#ccc"/>
      </g>
    </g>
    <g id="Group_81244" data-name="Group 81244" transform="translate(949.118 505)">
      <g id="Group_81243" data-name="Group 81243" clip-path="url(#clip-path-2)">
        <path id="Path_136" data-name="Path 136" d="M0,23.671Q0,14.257,0,4.844A4.628,4.628,0,0,1,2.664.483,4.539,4.539,0,0,1,4.806,0q9.3,0,18.605.007a.672.672,0,0,1,.427.184Q30.758,7.094,37.669,14a.62.62,0,0,1,.186.489q0,13.961,0,27.921a5.61,5.61,0,0,1-.053.884,4.715,4.715,0,0,1-4.592,4.034c-.083,0-.166,0-.249,0H4.9A4.7,4.7,0,0,1,.23,44.023a5.653,5.653,0,0,1-.22-1.608Q-.012,33.043,0,23.671M33.01,16.559,21.317,4.867V16.559ZM29.673,30.236l.449-1.72c-.128-.051-.236-.1-.349-.137a7.614,7.614,0,0,0-3.233-.274,4.781,4.781,0,0,0-4.531,4.954,4.351,4.351,0,0,0,3.247,4.505,9.086,9.086,0,0,0,5.025-.243c.183-.054.156-.177.156-.3q0-2.26,0-4.519c0-.08-.011-.161-.018-.25H26.891v1.674h1.463c0,.648,0,1.266-.006,1.883a.224.224,0,0,1-.141.16,3.443,3.443,0,0,1-2.713-.428,2.962,2.962,0,0,1-1.209-2.547,2.828,2.828,0,0,1,2.687-3.124,5.516,5.516,0,0,1,2.7.369M16.346,34.323c.206,0,.371,0,.536,0a5.163,5.163,0,0,0,2.656-.534A2.99,2.99,0,0,0,21.043,30.7,2.725,2.725,0,0,0,19,28.314a7.6,7.6,0,0,0-2.553-.229c-.743.029-1.484.1-2.223.152v9.444h2.124Zm-6.11-6.164v.364q0,2.717,0,5.434c0,.231,0,.463-.02.692a1.331,1.331,0,0,1-1.6,1.4c-.31-.017-.618-.073-.96-.116-.068.486-.129.977-.209,1.466-.034.205.044.271.232.312A5.85,5.85,0,0,0,9.85,37.8a2.566,2.566,0,0,0,2.228-1.71,5.154,5.154,0,0,0,.291-1.568c.035-2.051.019-4.1.021-6.155a2,2,0,0,0-.022-.211Z" transform="translate(0 0)" fill="#ccc"/>
        <path id="Path_137" data-name="Path 137" d="M142.12,260.189c0-.388.005-.776,0-1.164,0-.163.027-.269.22-.266a9.823,9.823,0,0,1,1.238.022,1.243,1.243,0,0,1,1.119,1.129,1.459,1.459,0,0,1-.765,1.532,2.929,2.929,0,0,1-1.653.2c-.058,0-.146-.149-.149-.231-.015-.406-.007-.813-.007-1.219" transform="translate(-125.78 -229.005)" fill="#ccc"/>
      </g>
    </g>
    <g id="Group_81247" data-name="Group 81247" transform="translate(1019.236 505)">
      <g id="Group_81246" data-name="Group 81246" clip-path="url(#clip-path-3)">
        <path id="Path_138" data-name="Path 138" d="M106.042,16.715v.3q0,11.635,0,23.269a4.138,4.138,0,0,1-3.486,4.191,4.581,4.581,0,0,1-.812.06q-5.1.006-10.194,0c-.1,0-.193-.008-.327-.014a9.9,9.9,0,0,0,0-8.315c.111-.005.2-.014.3-.014q3.765,0,7.53,0a1.394,1.394,0,0,0,.181-2.78c-.126-.009-.254-.007-.38-.007q-4.676,0-9.351,0a.644.644,0,0,1-.481-.183,9.561,9.561,0,0,0-5.445-2.534c-.017,0-.032-.012-.051-.059h.323q7.516,0,15.033,0a2.333,2.333,0,0,0,.618-.068,1.387,1.387,0,0,0-.174-2.7,2.6,2.6,0,0,0-.406-.03q-9.569,0-19.137.006a1.961,1.961,0,0,0-.835.181,1.274,1.274,0,0,0-.729,1.241,1.353,1.353,0,0,0,.772,1.222c.067.036.137.065.268.127H72.671c-.005-.1-.014-.2-.014-.295q0-13.021,0-26.042A4.129,4.129,0,0,1,76.833.013c4.1-.024,8.209-.007,12.314-.006.053,0,.106.008.2.015v.32q0,6.062,0,12.124a4.157,4.157,0,0,0,3.473,4.18,4.932,4.932,0,0,0,.892.067q5.967.006,11.934,0ZM89.333,25.057h9.539c.127,0,.254,0,.38-.009A1.4,1.4,0,0,0,99,22.269H79.7c-.073,0-.145,0-.217,0a1.4,1.4,0,0,0-1.249,1.651,1.381,1.381,0,0,0,1.448,1.133q4.824,0,9.648,0" transform="translate(-64.304 0)" fill="#ccc"/>
        <path id="Path_139" data-name="Path 139" d="M242.094,6.934l13.1,13.1c-.076,0-.17.012-.265.012H243.655a1.4,1.4,0,0,1-1.56-1.562q0-5.652,0-11.3Z" transform="translate(-214.264 -6.137)" fill="#ccc"/>
        <path id="Path_140" data-name="Path 140" d="M135.55,290.625a6.947,6.947,0,0,1,1.42,13.805,15.352,15.352,0,0,1-2.519.085,1.341,1.341,0,0,1-1.3-1.429,1.374,1.374,0,0,1,1.378-1.327,16.966,16.966,0,0,0,2.246-.109,4.162,4.162,0,0,0-.226-8.2c-.67-.082-1.355-.042-2.033-.061a1.383,1.383,0,0,1-1.2-2.048,1.315,1.315,0,0,1,1.169-.717c.317-.011.634,0,1.06,0" transform="translate(-117.841 -257.208)" fill="#ccc"/>
        <path id="Path_141" data-name="Path 141" d="M7.434,290.468c.308,0,.616,0,.924,0a1.383,1.383,0,0,1,.006,2.766c-.453.011-.906,0-1.358,0a4.174,4.174,0,0,0-.722,8.3,14.842,14.842,0,0,0,2.005.07,1.388,1.388,0,0,1,1.363.925,1.355,1.355,0,0,1-1.167,1.824,9.278,9.278,0,0,1-4.168-.494A6.956,6.956,0,0,1,5.89,290.548c.506-.083,1.027-.076,1.542-.11l0,.03" transform="translate(0 -257.051)" fill="#ccc"/>
        <path id="Path_142" data-name="Path 142" d="M55.429,341.813c-1.839,0-3.677,0-5.516,0a1.363,1.363,0,0,1-1.437-1.373,1.378,1.378,0,0,1,1.315-1.393c.081-.006.163,0,.244,0,3.6,0,7.191,0,10.787.008a2,2,0,0,1,.834.182,1.345,1.345,0,0,1,.677,1.544A1.363,1.363,0,0,1,61,341.809c-1.857.008-3.713,0-5.57,0Z" transform="translate(-42.903 -300.066)" fill="#ccc"/>
      </g>
    </g>
  </g>
</svg>
