<svg xmlns="http://www.w3.org/2000/svg" width="21.661" height="24.192"><g data-name="Group 3315" clip-path="url(&quot;#a&quot;)"><path d="M5.55 6.29c-.178-.606-.286-1.203-.246-1.822.067-1.019.462-1.894 1.14-2.649.496-.552 1.05-1.037 1.72-1.362 1.274-.62 2.555-.608 3.824.033.483.243.886.58 1.197 1.024.021.03.057.06.092.07.56.14.898.523 1.123 1.026.238.532.298 1.098.294 1.673-.005.624-.054 1.244-.218 1.85-.003.01 0 .023 0 .034.413.165.546.337.533.79a4.754 4.754 0 0 1-.582 2.155c-.074.138-.222.235-.333.353a.215.215 0 0 0-.06.095 4.79 4.79 0 0 1-.485 1.344.37.37 0 0 0-.039.171c.003.426.012.853.012 1.279a.364.364 0 0 1-.056.189c-.854 1.31-1.106 2.73-.761 4.253.019.084 0 .132-.055.189-.957.982-1.908 1.97-2.87 2.947-.4.407-.717.855-.842 1.42-.017.079-.072.071-.128.072l-1.954.024c-1.858.024-3.716.048-5.573.07-.625.007-1.115-.377-1.238-.97a1.478 1.478 0 0 1-.022-.275C.014 19.73.01 19.187 0 18.645c-.013-.717.265-1.292.817-1.745a32.751 32.751 0 0 1 5.697-3.755c.097-.05.14-.107.137-.222-.013-.58-.016-1.158-.026-1.737a.4.4 0 0 0-.048-.181 4.796 4.796 0 0 1-.508-1.322c-.01-.04-.03-.094-.06-.11a.868.868 0 0 1-.412-.456c-.15-.35-.293-.704-.406-1.067-.085-.275-.126-.564-.17-.848a1.17 1.17 0 0 1 .01-.372c.05-.286.206-.485.517-.54" fill="#a7a7a7" fill-rule="evenodd" data-name="Path 13920"/><path d="m15.198 19.89.484.47c.4.388.418.987.04 1.37-.377.384-.974.377-1.37-.016l-.474-.47-.416.428-.419.425c.113.11.22.218.33.321.178.166.339.341.398.59a.957.957 0 0 1-.417 1.036c-.34.214-.807.201-1.101-.072a33.988 33.988 0 0 1-1.413-1.383c-.327-.34-.31-.893.01-1.243.215-.235.441-.458.663-.685 1.053-1.08 2.105-2.16 3.16-3.237.069-.07.076-.118.032-.205-1.103-2.192.23-4.846 2.64-5.262a3.66 3.66 0 0 1 4.224 2.81c.459 1.972-.848 3.991-2.84 4.392a3.672 3.672 0 0 1-2.382-.303c-.036-.018-.11-.02-.133.004-.34.338-.672.68-1.016 1.03m4.277-4.36a1.478 1.478 0 0 0-1.51-1.461 1.487 1.487 0 0 0-1.462 1.5c.01.817.693 1.485 1.508 1.471a1.487 1.487 0 0 0 1.464-1.51" fill="#a7a7a7" fill-rule="evenodd" data-name="Path 13921"/></g><defs><clipPath id="a"><path d="M0 0h21.661v24.192H0V0z" data-name="Rectangle 1453"/></clipPath></defs></svg>