<svg xmlns="http://www.w3.org/2000/svg" width="256.814" height="65" viewBox="0 0 256.814 65">
  <g id="Group_85622" data-name="Group 85622" transform="translate(-1405 -470)">
    <g id="Group_81224" data-name="Group 81224" transform="translate(1405 470)">
      <g id="Group_81223" data-name="Group 81223" transform="translate(0 0)">
        <g id="Group_1393" data-name="Group 1393" transform="translate(0 0)">
          <g id="Group_1188" data-name="Group 1188">
            <path id="Path_1064" data-name="Path 1064" d="M1318.08,3692.763h-11.1a2.549,2.549,0,0,0-2.566,2.533v5.312l-13.365-9.871a2.6,2.6,0,0,0-3.078,0l-28.578,21.1a2.52,2.52,0,0,0-1.026,2.026V3752.7a2.549,2.549,0,0,0,2.565,2.534h41.346a2.382,2.382,0,0,0,.289-.018,2.079,2.079,0,0,0,.392-.077,2.533,2.533,0,0,0,1.135-.646l15.8-15.6a2.523,2.523,0,0,0,.751-1.792V3695.3A2.549,2.549,0,0,0,1318.08,3692.763Zm-13.237,53.827v-6.952h7.041Zm10.671-12.018h-13.237a2.549,2.549,0,0,0-2.565,2.533v13.062H1263.5v-35.028l26.013-19.21,15.93,11.771a2.605,2.605,0,0,0,2.688.234,2.534,2.534,0,0,0,1.417-2.266v-7.839h5.971Z" transform="translate(-1258.366 -3690.233)"/>
          </g>
          <g id="Group_1189" data-name="Group 1189" transform="translate(9.877 36.479)">
            <path id="Path_1065" data-name="Path 1065" d="M1364.8,3949.524h-34.632a2.565,2.565,0,1,0,0,5.13H1364.8a2.565,2.565,0,0,0,0-5.13Z" transform="translate(-1327.601 -3949.524)"/>
          </g>
          <g id="Group_1190" data-name="Group 1190" transform="translate(9.877 47.453)">
            <path id="Path_1066" data-name="Path 1066" d="M1352.613,4027.525h-22.447a2.565,2.565,0,1,0,0,5.13h22.447a2.565,2.565,0,0,0,0-5.13Z" transform="translate(-1327.601 -4027.525)"/>
          </g>
          <g id="Group_1191" data-name="Group 1191" transform="translate(9.877 25.505)">
            <path id="Path_1067" data-name="Path 1067" d="M1364.8,3871.523h-34.632a2.565,2.565,0,0,0,0,5.131H1364.8a2.565,2.565,0,0,0,0-5.131Z" transform="translate(-1327.601 -3871.523)"/>
          </g>
        </g>
        <g id="Group_1394" data-name="Group 1394" transform="translate(68.739 17.077)">
          <path id="Path_1068" data-name="Path 1068" d="M1776.921,3851.45l9.043-26.107h4.565l-11.738,31.65h-3.7l-11.717-31.65h4.543Z" transform="translate(-1763.378 -3823.604)"/>
          <path id="Path_1069" data-name="Path 1069" d="M1975.916,3903.675a11.227,11.227,0,0,1-4.446-.848,9.914,9.914,0,0,1-3.4-2.358,10.437,10.437,0,0,1-2.174-3.6,13.25,13.25,0,0,1-.761-4.566v-.913a14.36,14.36,0,0,1,.859-5.13,11.525,11.525,0,0,1,2.293-3.805,9.924,9.924,0,0,1,3.282-2.359,9.433,9.433,0,0,1,3.847-.815,9.936,9.936,0,0,1,4.348.88,8.255,8.255,0,0,1,3.01,2.424,10.315,10.315,0,0,1,1.75,3.652,17.654,17.654,0,0,1,.565,4.586v1.805h-15.934a10.071,10.071,0,0,0,.532,3.043,7.423,7.423,0,0,0,1.392,2.456,6.476,6.476,0,0,0,5.054,2.261,7,7,0,0,0,3.609-.87,9.049,9.049,0,0,0,2.587-2.3l2.457,1.914a10.845,10.845,0,0,1-1.37,1.684,9.338,9.338,0,0,1-1.881,1.456,9.876,9.876,0,0,1-2.467,1.022A12,12,0,0,1,1975.916,3903.675Zm-.5-21.086a5.425,5.425,0,0,0-4.064,1.74,6.961,6.961,0,0,0-1.337,2.108,10.677,10.677,0,0,0-.728,2.891h11.782v-.305a11.116,11.116,0,0,0-.38-2.325,6.323,6.323,0,0,0-.978-2.065,5.043,5.043,0,0,0-1.707-1.478A5.381,5.381,0,0,0,1975.415,3882.589Z" transform="translate(-1936.352 -3869.851)"/>
          <path id="Path_1070" data-name="Path 1070" d="M2149,3883.328q-.521-.086-.967-.119c-.3-.022-.634-.033-1.011-.033a5.843,5.843,0,0,0-3.4.913,5.547,5.547,0,0,0-1.968,2.456v16.7h-4.02v-23.521h3.912l.065,2.716a7.1,7.1,0,0,1,2.282-2.3,6.208,6.208,0,0,1,3.326-.848,5.92,5.92,0,0,1,1,.1,3.176,3.176,0,0,1,.782.208Z" transform="translate(-2084.242 -3869.851)"/>
          <path id="Path_1071" data-name="Path 1071" d="M2243.383,3824.621a2.4,2.4,0,0,1,.6-1.651,2.248,2.248,0,0,1,1.773-.674,2.28,2.28,0,0,1,1.782.674,2.374,2.374,0,0,1,.608,1.651,2.489,2.489,0,0,1-4.164,1.63A2.323,2.323,0,0,1,2243.383,3824.621Zm4.347,29.758h-4.021v-23.52h4.021Z" transform="translate(-2174.909 -3820.991)"/>
          <path id="Path_1072" data-name="Path 1072" d="M2328.625,3846.382a5.268,5.268,0,0,0-.337-1.957,3.908,3.908,0,0,0-1.2-1.555,9.605,9.605,0,0,0-2.315-1.327,34.1,34.1,0,0,0-3.7-1.27,31.248,31.248,0,0,1-4.249-1.533,13.953,13.953,0,0,1-3.24-1.978,7.971,7.971,0,0,1-2.054-2.554,7.229,7.229,0,0,1-.717-3.282,7.675,7.675,0,0,1,.772-3.423,8.163,8.163,0,0,1,2.184-2.738,10.391,10.391,0,0,1,3.391-1.816,14.066,14.066,0,0,1,4.413-.651,13.178,13.178,0,0,1,4.761.8,10.754,10.754,0,0,1,3.51,2.13,8.915,8.915,0,0,1,2.163,3.065,9.085,9.085,0,0,1,.739,3.587h-4.195a6.954,6.954,0,0,0-.424-2.457,5.2,5.2,0,0,0-1.293-1.957,5.963,5.963,0,0,0-2.174-1.282,9.366,9.366,0,0,0-3.087-.457,9.722,9.722,0,0,0-2.913.391,5.821,5.821,0,0,0-2.044,1.076,4.279,4.279,0,0,0-1.194,1.62,5.23,5.23,0,0,0-.392,2.043,3.943,3.943,0,0,0,.424,1.827,4.64,4.64,0,0,0,1.315,1.521,9.929,9.929,0,0,0,2.294,1.281,28.59,28.59,0,0,0,3.359,1.132,29.988,29.988,0,0,1,4.651,1.685,12.719,12.719,0,0,1,3.228,2.1,7.659,7.659,0,0,1,1.892,2.631,8.382,8.382,0,0,1,.619,3.3,7.512,7.512,0,0,1-3.011,6.173,10.562,10.562,0,0,1-3.478,1.708,16.057,16.057,0,0,1-4.532.6,15.88,15.88,0,0,1-2.913-.271,14.485,14.485,0,0,1-2.794-.814,12.4,12.4,0,0,1-2.477-1.349,9.561,9.561,0,0,1-1.99-1.869,8.362,8.362,0,0,1-1.327-2.391,8.542,8.542,0,0,1-.478-2.913h4.2a5.471,5.471,0,0,0,2.359,4.717,7.459,7.459,0,0,0,2.478,1.12,11.831,11.831,0,0,0,2.946.358,8.2,8.2,0,0,0,5.064-1.348A4.376,4.376,0,0,0,2328.625,3846.382Z" transform="translate(-2231.87 -3820.991)"/>
          <path id="Path_1073" data-name="Path 1073" d="M2507.73,3903.675a11.226,11.226,0,0,1-4.446-.848,9.906,9.906,0,0,1-3.4-2.358,10.414,10.414,0,0,1-2.174-3.6,13.227,13.227,0,0,1-.761-4.566v-.913a14.355,14.355,0,0,1,.859-5.13,11.517,11.517,0,0,1,2.293-3.805,9.933,9.933,0,0,1,3.283-2.359,9.433,9.433,0,0,1,3.847-.815,9.933,9.933,0,0,1,4.348.88,8.267,8.267,0,0,1,3.011,2.424,10.321,10.321,0,0,1,1.749,3.652,17.654,17.654,0,0,1,.565,4.586v1.805h-15.934a10.094,10.094,0,0,0,.532,3.043,7.419,7.419,0,0,0,1.392,2.456,6.48,6.48,0,0,0,5.055,2.261,7,7,0,0,0,3.608-.87,9.061,9.061,0,0,0,2.586-2.3l2.456,1.914a10.81,10.81,0,0,1-1.369,1.684,9.357,9.357,0,0,1-1.88,1.456,9.878,9.878,0,0,1-2.468,1.022A11.985,11.985,0,0,1,2507.73,3903.675Zm-.5-21.086a5.428,5.428,0,0,0-4.065,1.74,6.947,6.947,0,0,0-1.337,2.108,10.632,10.632,0,0,0-.728,2.891h11.781v-.305a11.212,11.212,0,0,0-.38-2.325,6.325,6.325,0,0,0-.979-2.065,5.041,5.041,0,0,0-1.706-1.478A5.391,5.391,0,0,0,2507.229,3882.589Z" transform="translate(-2392.301 -3869.851)"/>
          <path id="Path_1074" data-name="Path 1074" d="M2657.786,3842.409v5.7h4.391v3.108h-4.391V3865.8a4.1,4.1,0,0,0,.218,1.467,2.1,2.1,0,0,0,.577.859,1.832,1.832,0,0,0,.826.4,4.716,4.716,0,0,0,.966.1,6.112,6.112,0,0,0,1.055-.1c.369-.065.656-.12.858-.163v3.26q-.478.13-1.239.283a9.581,9.581,0,0,1-1.848.152,6.855,6.855,0,0,1-2.1-.316,4.2,4.2,0,0,1-1.729-1.054,5.2,5.2,0,0,1-1.174-1.945,8.824,8.824,0,0,1-.435-2.967v-14.564h-4.282v-3.108h4.282v-5.7Z" transform="translate(-2523.077 -3838.235)"/>
          <path id="Path_1075" data-name="Path 1075" d="M2759.73,3842.409v5.7h4.391v3.108h-4.391V3865.8a4.094,4.094,0,0,0,.218,1.467,2.094,2.094,0,0,0,.576.859,1.841,1.841,0,0,0,.826.4,4.725,4.725,0,0,0,.967.1,6.1,6.1,0,0,0,1.054-.1c.37-.065.656-.12.859-.163v3.26q-.48.13-1.24.283a9.577,9.577,0,0,1-1.848.152,6.853,6.853,0,0,1-2.1-.316,4.2,4.2,0,0,1-1.728-1.054,5.189,5.189,0,0,1-1.173-1.945,8.792,8.792,0,0,1-.436-2.967v-14.564h-4.281v-3.108h4.281v-5.7Z" transform="translate(-2610.479 -3838.235)"/>
          <path id="Path_1076" data-name="Path 1076" d="M2879.791,3846.541h-4.02v-33.39h4.02Z" transform="translate(-2717.085 -3813.151)"/>
          <path id="Path_1077" data-name="Path 1077" d="M2952.687,3903.675a11.225,11.225,0,0,1-4.446-.848,9.911,9.911,0,0,1-3.4-2.358,10.419,10.419,0,0,1-2.174-3.6,13.238,13.238,0,0,1-.761-4.566v-.913a14.344,14.344,0,0,1,.859-5.13,11.513,11.513,0,0,1,2.293-3.805,9.924,9.924,0,0,1,3.282-2.359,9.435,9.435,0,0,1,3.848-.815,9.926,9.926,0,0,1,4.347.88,8.263,8.263,0,0,1,3.011,2.424,10.323,10.323,0,0,1,1.75,3.652,17.686,17.686,0,0,1,.565,4.586v1.805h-15.934a10.079,10.079,0,0,0,.533,3.043,7.417,7.417,0,0,0,1.391,2.456,6.475,6.475,0,0,0,5.054,2.261,7,7,0,0,0,3.608-.87,9.044,9.044,0,0,0,2.587-2.3l2.457,1.914a10.751,10.751,0,0,1-1.37,1.684,9.342,9.342,0,0,1-1.879,1.456,9.9,9.9,0,0,1-2.468,1.022A12,12,0,0,1,2952.687,3903.675Zm-.5-21.086a5.43,5.43,0,0,0-4.066,1.74,6.963,6.963,0,0,0-1.336,2.108,10.7,10.7,0,0,0-.729,2.891h11.782v-.305a11.148,11.148,0,0,0-.38-2.325,6.33,6.33,0,0,0-.979-2.065,5.036,5.036,0,0,0-1.706-1.478A5.386,5.386,0,0,0,2952.186,3882.589Z" transform="translate(-2773.784 -3869.851)"/>
        </g>
      </g>
    </g>
  </g>
</svg>
